<svg width="24" height="24" viewBox="0 0 24 24" fill="none" xmlns="http://www.w3.org/2000/svg">
<path d="M3.51501 11.2502L18.6752 11.2509L13.061 5.63668C12.9203 5.49602 12.8413 5.30526 12.8413 5.10635C12.8413 4.90743 12.9203 4.71667 13.061 4.57602C13.2016 4.43536 13.3924 4.35635 13.5913 4.35635C13.7902 4.35635 13.981 4.43536 14.1216 4.57602L21.0159 11.4703C21.1566 11.611 21.2356 11.8017 21.2356 12.0006C21.2356 12.1996 21.1566 12.3903 21.0159 12.531L14.1216 19.4253C13.981 19.5659 13.7902 19.6449 13.5913 19.6449C13.3924 19.6449 13.2016 19.5659 13.061 19.4253C12.9203 19.2846 12.8413 19.0938 12.8413 18.8949C12.8413 18.696 12.9203 18.5053 13.061 18.3646L18.6752 12.7504L3.51501 12.7511C3.41647 12.7511 3.31889 12.7316 3.22784 12.6939C3.1368 12.6562 3.05407 12.6009 2.98439 12.5313C2.91471 12.4616 2.85943 12.3789 2.82172 12.2878C2.78401 12.1968 2.7646 12.0992 2.7646 12.0006C2.7646 11.9021 2.78401 11.8045 2.82172 11.7135C2.85943 11.6224 2.91471 11.5397 2.98439 11.47C3.05407 11.4003 3.1368 11.3451 3.22784 11.3073C3.31889 11.2696 3.41647 11.2502 3.51501 11.2502Z" fill="#EA4325"/>
</svg>
