<svg width="40" height="31" viewBox="0 0 40 31" fill="none" xmlns="http://www.w3.org/2000/svg">
<path d="M36.9653 25.6618V23.3169H33.1032V18.2135H27.8619V15.8687H34.3446V18.2135H36.8274V20.5583H39.4481V15.8687H37.1032V13.5238H33.2412V8.28246H30.7584V5.93763H26.2067V4.97212H28.6895V2.62729H31.1722V0.144531H26.2067V2.48936H23.7239V5.93763H16.2757V2.48936H13.7929V0.144531H8.82738V2.62729H11.3101V4.97212H13.7929V5.93763H9.51704V8.28246H6.89635V13.3859H3.03428V15.7307H0.689453V20.4204H3.31014V18.0756H5.7929V15.7307H12.2757V18.0756H6.89635V23.179H3.03428V25.5238H0.689453V30.4894H3.31014V28.1445H5.7929V25.7997H9.65497V28.1445H30.6205V25.7997H34.4826V28.1445H36.9653V30.4894H39.4481V25.6618H36.9653ZM23.7239 8.28246H25.7929V10.3514H23.7239V8.28246ZM17.2412 13.9376H22.6205V14.6273H17.2412V13.9376ZM14.2067 8.28246H16.2757V10.3514H14.2067V8.28246ZM14.8963 25.1101H13.1032V20.8342H14.8963V25.1101ZM17.9308 25.1101H16.1377V20.8342H17.9308V25.1101ZM20.9653 25.1101H19.0343V20.8342H20.9653V25.1101ZM22.0688 25.1101V20.8342H23.9998V25.1101H22.0688ZM26.8964 25.1101H25.1032V20.8342H26.8964V25.1101Z" fill="#20243F"/>
<path d="M16.2757 8.28246H14.2067V10.3514H16.2757V8.28246Z" fill="white"/>
<path d="M25.7929 8.28246H23.7239V10.3514H25.7929V8.28246Z" fill="white"/>
<path d="M22.6205 13.9376H17.2412V14.6273H22.6205V13.9376Z" fill="white"/>
<path d="M14.8963 20.8342H13.1032V25.1101H14.8963V20.8342Z" fill="white"/>
<path d="M17.7929 20.8342H15.9998V25.1101H17.7929V20.8342Z" fill="white"/>
<path d="M20.9653 20.8342H19.0343V25.1101H20.9653V20.8342Z" fill="white"/>
<path d="M23.9998 20.8342H22.0688V25.1101H23.9998V20.8342Z" fill="white"/>
<path d="M26.8964 20.8342H25.1032V25.1101H26.8964V20.8342Z" fill="white"/>
</svg>
