<svg width="16" height="16" viewBox="0 0 16 16" fill="none" xmlns="http://www.w3.org/2000/svg">
<g clip-path="url(#clip0_7974_44915)">
<path d="M14.6663 7.38918V8.00251C14.6655 9.44013 14.2 10.839 13.3392 11.9904C12.4785 13.1418 11.2685 13.9842 9.88991 14.3918C8.5113 14.7994 7.03785 14.7504 5.68932 14.2522C4.3408 13.754 3.18944 12.8332 2.40698 11.6272C1.62452 10.4212 1.25287 8.99456 1.34746 7.56006C1.44205 6.12556 1.99781 4.76006 2.93186 3.66723C3.86591 2.57439 5.1282 1.81277 6.53047 1.49594C7.93274 1.17912 9.39985 1.32407 10.713 1.90918M14.6663 2.66536L7.99967 9.3387L5.99967 7.3387" stroke="#E7699E" stroke-width="2" stroke-linecap="round" stroke-linejoin="round"/>
</g>
<defs>
<clipPath id="clip0_7974_44915">
<rect width="16" height="16" fill="white"/>
</clipPath>
</defs>
</svg>
