<svg width="20" height="21" viewBox="0 0 20 21" fill="none" xmlns="http://www.w3.org/2000/svg">
<path d="M10 2.49219C8.39303 2.49219 6.82214 2.96871 5.486 3.8615C4.14985 4.75428 3.10844 6.02323 2.49348 7.50788C1.87852 8.99253 1.71762 10.6262 2.03112 12.2023C2.34463 13.7784 3.11846 15.2261 4.25476 16.3624C5.39106 17.4987 6.8388 18.2726 8.4149 18.5861C9.99099 18.8996 11.6247 18.7387 13.1093 18.1237C14.594 17.5087 15.8629 16.4673 16.7557 15.1312C17.6485 13.795 18.125 12.2242 18.125 10.6172C18.1227 8.463 17.266 6.3977 15.7427 4.87446C14.2195 3.35122 12.1542 2.49446 10 2.49219ZM10 17.4922C8.64026 17.4922 7.31105 17.089 6.18046 16.3335C5.04987 15.5781 4.16868 14.5044 3.64833 13.2481C3.12798 11.9919 2.99183 10.6096 3.2571 9.27594C3.52238 7.94232 4.17716 6.71731 5.13864 5.75583C6.10013 4.79434 7.32514 4.13956 8.65876 3.87429C9.99238 3.60902 11.3747 3.74516 12.631 4.26552C13.8872 4.78587 14.9609 5.66705 15.7164 6.79764C16.4718 7.92823 16.875 9.25744 16.875 10.6172C16.8729 12.4399 16.1479 14.1874 14.8591 15.4763C13.5702 16.7651 11.8227 17.4901 10 17.4922ZM15 10.6172C15 10.7829 14.9342 10.9419 14.8169 11.0591C14.6997 11.1763 14.5408 11.2422 14.375 11.2422H10C9.83424 11.2422 9.67527 11.1763 9.55806 11.0591C9.44085 10.9419 9.375 10.7829 9.375 10.6172V6.24219C9.375 6.07643 9.44085 5.91746 9.55806 5.80025C9.67527 5.68304 9.83424 5.61719 10 5.61719C10.1658 5.61719 10.3247 5.68304 10.4419 5.80025C10.5592 5.91746 10.625 6.07643 10.625 6.24219V9.99219H14.375C14.5408 9.99219 14.6997 10.058 14.8169 10.1752C14.9342 10.2925 15 10.4514 15 10.6172Z" fill="white"/>
</svg>
