<svg width="24" height="25" viewBox="0 0 24 25" fill="none" xmlns="http://www.w3.org/2000/svg">
<g clip-path="url(#clip0_6800_5136)">
<path d="M21.545 4.5034L12.3575 0.688854C12.1274 0.593322 11.8687 0.593275 11.6386 0.688854L2.45106 4.5034C2.10114 4.64871 1.87305 4.99034 1.87305 5.36923V10.0063C1.87305 16.3913 5.73222 22.1348 11.6438 24.5477C11.8708 24.6403 12.1252 24.6403 12.3523 24.5477C18.2638 22.1348 22.123 16.3914 22.123 10.0063V5.36923C22.123 4.99034 21.895 4.64871 21.545 4.5034ZM20.248 10.0063C20.248 15.4342 17.0605 20.431 11.998 22.6614C7.07083 20.4905 3.74805 15.5813 3.74805 10.0063V5.9951L11.998 2.56976L20.248 5.9951V10.0063ZM10.9618 13.1664L14.9914 9.13685C15.3575 8.77076 15.9511 8.77071 16.3172 9.13685C16.6833 9.50299 16.6833 10.0966 16.3172 10.4627L11.6247 15.1551C11.2585 15.5213 10.665 15.5211 10.2989 15.1551L7.67889 12.5351C7.31275 12.1689 7.31275 11.5753 7.67889 11.2092C8.04503 10.8432 8.63861 10.8431 9.0047 11.2092L10.9618 13.1664Z" fill="white"/>
</g>
<defs>
<clipPath id="clip0_6800_5136">
<rect width="24" height="24" fill="white" transform="translate(0 0.617188)"/>
</clipPath>
</defs>
</svg>
