<svg width="20" height="20" viewBox="0 0 20 20" fill="none" xmlns="http://www.w3.org/2000/svg">
<path d="M16.6667 5.83073H3.33333C2.83333 5.83073 2.5 5.4974 2.5 4.9974C2.5 4.4974 2.83333 4.16406 3.33333 4.16406H16.6667C17.1667 4.16406 17.5 4.4974 17.5 4.9974C17.5 5.4974 17.1667 5.83073 16.6667 5.83073Z" fill="#080707"/>
<path d="M11.6667 10.8307H3.33333C2.83333 10.8307 2.5 10.4974 2.5 9.9974C2.5 9.4974 2.83333 9.16406 3.33333 9.16406H11.6667C12.1667 9.16406 12.5 9.4974 12.5 9.9974C12.5 10.4974 12.1667 10.8307 11.6667 10.8307Z" fill="#080707"/>
<path d="M15 15.8307H3.33333C2.83333 15.8307 2.5 15.4974 2.5 14.9974C2.5 14.4974 2.83333 14.1641 3.33333 14.1641H15C15.5 14.1641 15.8333 14.4974 15.8333 14.9974C15.8333 15.4974 15.5 15.8307 15 15.8307Z" fill="#080707"/>
</svg>
