<svg width="60" height="60" viewBox="0 0 60 60" fill="none" xmlns="http://www.w3.org/2000/svg">
<g filter="url(#filter0_d_6853_62311)">
<rect x="56" y="52" width="52" height="52" rx="26" transform="rotate(-180 56 52)" fill="white"/>
<rect x="55.5" y="51.5" width="51" height="51" rx="25.5" transform="rotate(-180 55.5 51.5)" stroke="black"/>
<path fill-rule="evenodd" clip-rule="evenodd" d="M22.4074 27.1075C22.114 26.8141 21.9492 26.4162 21.9492 26.0013C21.9492 25.5864 22.114 25.1885 22.4074 24.895L31.259 16.0434C31.4033 15.8939 31.576 15.7747 31.7669 15.6927C31.9578 15.6107 32.1631 15.5675 32.3709 15.5657C32.5787 15.5639 32.7847 15.6035 32.977 15.6822C33.1693 15.7609 33.344 15.8771 33.4909 16.024C33.6378 16.1709 33.754 16.3456 33.8327 16.5379C33.9114 16.7302 33.951 16.9362 33.9492 17.144C33.9474 17.3518 33.9042 17.5571 33.8222 17.748C33.7402 17.9389 33.621 18.1115 33.4715 18.2559L25.7261 26.0013L33.4715 33.7467C33.7566 34.0418 33.9143 34.437 33.9107 34.8473C33.9071 35.2576 33.7426 35.65 33.4525 35.9401C33.1624 36.2303 32.7699 36.3948 32.3596 36.3984C31.9494 36.4019 31.5541 36.2442 31.259 35.9592L22.4074 27.1075Z" fill="black"/>
</g>
<defs>
<filter id="filter0_d_6853_62311" x="0" y="0" width="60" height="60" filterUnits="userSpaceOnUse" color-interpolation-filters="sRGB">
<feFlood flood-opacity="0" result="BackgroundImageFix"/>
<feColorMatrix in="SourceAlpha" type="matrix" values="0 0 0 0 0 0 0 0 0 0 0 0 0 0 0 0 0 0 127 0" result="hardAlpha"/>
<feOffset dy="4"/>
<feGaussianBlur stdDeviation="2"/>
<feComposite in2="hardAlpha" operator="out"/>
<feColorMatrix type="matrix" values="0 0 0 0 0 0 0 0 0 0 0 0 0 0 0 0 0 0 0.25 0"/>
<feBlend mode="normal" in2="BackgroundImageFix" result="effect1_dropShadow_6853_62311"/>
<feBlend mode="normal" in="SourceGraphic" in2="effect1_dropShadow_6853_62311" result="shape"/>
</filter>
</defs>
</svg>
