<svg width="20" height="21" viewBox="0 0 20 21" fill="none" xmlns="http://www.w3.org/2000/svg">
<path d="M10 5.61719C9.38193 5.61719 8.77775 5.80047 8.26384 6.14385C7.74994 6.48722 7.3494 6.97528 7.11288 7.5463C6.87635 8.11732 6.81447 8.74565 6.93505 9.35184C7.05562 9.95804 7.35325 10.5149 7.79029 10.9519C8.22733 11.3889 8.78415 11.6866 9.39034 11.8071C9.99653 11.9277 10.6249 11.8658 11.1959 11.6293C11.7669 11.3928 12.255 10.9922 12.5983 10.4783C12.9417 9.96444 13.125 9.36025 13.125 8.74219C13.125 7.91339 12.7958 7.11853 12.2097 6.53248C11.6237 5.94643 10.8288 5.61719 10 5.61719ZM10 10.6172C9.62916 10.6172 9.26665 10.5072 8.95831 10.3012C8.64996 10.0952 8.40964 9.80233 8.26773 9.45972C8.12581 9.11711 8.08868 8.74011 8.16103 8.37639C8.23337 8.01268 8.41195 7.67859 8.67417 7.41636C8.9364 7.15414 9.27049 6.97556 9.63421 6.90321C9.99792 6.83087 10.3749 6.868 10.7175 7.00991C11.0601 7.15183 11.353 7.39215 11.559 7.70049C11.765 8.00884 11.875 8.37135 11.875 8.74219C11.875 9.23947 11.6775 9.71638 11.3258 10.068C10.9742 10.4196 10.4973 10.6172 10 10.6172ZM10 1.86719C8.17727 1.86926 6.42979 2.59425 5.14092 3.88311C3.85206 5.17198 3.12707 6.91946 3.125 8.74219C3.125 11.1953 4.25859 13.7953 6.40625 16.2617C7.37127 17.3762 8.45739 18.3798 9.64453 19.2539C9.74962 19.3275 9.87482 19.367 10.0031 19.367C10.1314 19.367 10.2566 19.3275 10.3617 19.2539C11.5467 18.3794 12.6307 17.3759 13.5938 16.2617C15.7383 13.7953 16.875 11.1953 16.875 8.74219C16.8729 6.91946 16.1479 5.17198 14.8591 3.88311C13.5702 2.59425 11.8227 1.86926 10 1.86719ZM10 17.9609C8.70859 16.9453 4.375 13.2148 4.375 8.74219C4.375 7.25034 4.96763 5.8196 6.02252 4.76471C7.07742 3.70982 8.50816 3.11719 10 3.11719C11.4918 3.11719 12.9226 3.70982 13.9775 4.76471C15.0324 5.8196 15.625 7.25034 15.625 8.74219C15.625 13.2133 11.2914 16.9453 10 17.9609Z" fill="white" fill-opacity="0.8"/>
</svg>
