<svg width="20" height="20" viewBox="0 0 20 20" fill="none" xmlns="http://www.w3.org/2000/svg">
<path d="M3.09974 2.32293L3.55807 3.87459H15.7697C17.3031 3.87459 18.4739 5.30543 18.0322 6.79959L16.6531 11.4663C16.3597 12.4613 15.4272 13.1246 14.3906 13.1246H6.76057C5.7239 13.1246 4.79224 12.4613 4.49807 11.4663L1.90057 2.67709C1.87484 2.59771 1.86527 2.51398 1.87241 2.43084C1.87956 2.3477 1.90329 2.26683 1.94219 2.193C1.98109 2.11918 2.03439 2.05389 2.09893 2.00099C2.16347 1.94809 2.23795 1.90866 2.31797 1.885C2.398 1.86135 2.48195 1.85397 2.56488 1.86328C2.64781 1.8726 2.72803 1.89842 2.80081 1.93924C2.8736 1.98005 2.93747 2.03503 2.98867 2.10093C3.03987 2.16683 3.07818 2.24231 3.09974 2.32293ZM11.0414 6.66626C11.0414 6.5005 10.9756 6.34153 10.8583 6.22432C10.7411 6.10711 10.5822 6.04126 10.4164 6.04126C10.2506 6.04126 10.0917 6.10711 9.97446 6.22432C9.85725 6.34153 9.7914 6.5005 9.7914 6.66626V7.70793H8.74974C8.58398 7.70793 8.42501 7.77378 8.3078 7.89099C8.19059 8.0082 8.12474 8.16717 8.12474 8.33293C8.12474 8.49869 8.19059 8.65766 8.3078 8.77487C8.42501 8.89208 8.58398 8.95793 8.74974 8.95793H9.7914V9.99959C9.7914 10.1654 9.85725 10.3243 9.97446 10.4415C10.0917 10.5587 10.2506 10.6246 10.4164 10.6246C10.5822 10.6246 10.7411 10.5587 10.8583 10.4415C10.9756 10.3243 11.0414 10.1654 11.0414 9.99959V8.95793H12.0831C12.2488 8.95793 12.4078 8.89208 12.525 8.77487C12.6422 8.65766 12.7081 8.49869 12.7081 8.33293C12.7081 8.16717 12.6422 8.0082 12.525 7.89099C12.4078 7.77378 12.2488 7.70793 12.0831 7.70793H11.0414V6.66626ZM7.08307 14.3746C6.58579 14.3746 6.10888 14.5721 5.75725 14.9238C5.40562 15.2754 5.20807 15.7523 5.20807 16.2496C5.20807 16.7469 5.40562 17.2238 5.75725 17.5754C6.10888 17.927 6.58579 18.1246 7.08307 18.1246C7.58035 18.1246 8.05727 17.927 8.4089 17.5754C8.76053 17.2238 8.95807 16.7469 8.95807 16.2496C8.95807 15.7523 8.76053 15.2754 8.4089 14.9238C8.05727 14.5721 7.58035 14.3746 7.08307 14.3746ZM13.7497 14.3746C13.2525 14.3746 12.7755 14.5721 12.4239 14.9238C12.0723 15.2754 11.8747 15.7523 11.8747 16.2496C11.8747 16.7469 12.0723 17.2238 12.4239 17.5754C12.7755 17.927 13.2525 18.1246 13.7497 18.1246C14.247 18.1246 14.7239 17.927 15.0756 17.5754C15.4272 17.2238 15.6247 16.7469 15.6247 16.2496C15.6247 15.7523 15.4272 15.2754 15.0756 14.9238C14.7239 14.5721 14.247 14.3746 13.7497 14.3746Z" fill="white"/>
</svg>
