<svg width="30" height="30" viewBox="0 0 30 30" fill="none" xmlns="http://www.w3.org/2000/svg">
<rect width="30" height="30" rx="15" fill="#F9BC26"/>
<path d="M7.82125 9.72239C7.19097 9.01796 6.87583 8.66574 6.86394 8.3664C6.85361 8.10636 6.96536 7.85643 7.16603 7.69074C7.39704 7.5 7.86966 7.5 8.81491 7.5H21.184C22.1293 7.5 22.6019 7.5 22.8329 7.69074C23.0336 7.85643 23.1453 8.10636 23.135 8.3664C23.1231 8.66574 22.808 9.01796 22.1777 9.72239L17.4225 15.037C17.2968 15.1774 17.234 15.2477 17.1892 15.3276C17.1495 15.3984 17.1203 15.4747 17.1027 15.554C17.0828 15.6435 17.0828 15.7377 17.0828 15.9261V20.382C17.0828 20.5449 17.0828 20.6264 17.0565 20.6969C17.0333 20.7591 16.9955 20.8149 16.9463 20.8596C16.8907 20.9102 16.815 20.9404 16.6637 21.001L13.8304 22.1343C13.5241 22.2568 13.371 22.3181 13.248 22.2925C13.1405 22.2702 13.0462 22.2063 12.9855 22.1148C12.9161 22.0101 12.9161 21.8452 12.9161 21.5153V15.9261C12.9161 15.7377 12.9161 15.6435 12.8962 15.554C12.8786 15.4747 12.8494 15.3984 12.8097 15.3276C12.7649 15.2477 12.7021 15.1774 12.5765 15.037L7.82125 9.72239Z" stroke="black" stroke-width="2" stroke-linecap="round" stroke-linejoin="round"/>
</svg>
