<svg width="20" height="21" viewBox="0 0 20 21" fill="none" xmlns="http://www.w3.org/2000/svg">
<path d="M17.3438 10.3262C17.3438 10.4505 17.2944 10.5697 17.2065 10.6576C17.1185 10.7455 16.9993 10.7949 16.875 10.7949H10.4688V17.2012C10.4688 17.3255 10.4194 17.4447 10.3315 17.5326C10.2435 17.6205 10.1243 17.6699 10 17.6699C9.87568 17.6699 9.75645 17.6205 9.66854 17.5326C9.58064 17.4447 9.53125 17.3255 9.53125 17.2012V10.7949H3.125C3.00068 10.7949 2.88145 10.7455 2.79354 10.6576C2.70564 10.5697 2.65625 10.4505 2.65625 10.3262C2.65625 10.2019 2.70564 10.0826 2.79354 9.99472C2.88145 9.90681 3.00068 9.85742 3.125 9.85742H9.53125V3.45117C9.53125 3.32685 9.58064 3.20762 9.66854 3.11972C9.75645 3.03181 9.87568 2.98242 10 2.98242C10.1243 2.98242 10.2435 3.03181 10.3315 3.11972C10.4194 3.20762 10.4688 3.32685 10.4688 3.45117V9.85742H16.875C16.9993 9.85742 17.1185 9.90681 17.2065 9.99472C17.2944 10.0826 17.3438 10.2019 17.3438 10.3262Z" fill="white"/>
</svg>
