<svg width="16" height="17" viewBox="0 0 16 17" fill="none" xmlns="http://www.w3.org/2000/svg">
<path d="M14.3682 6.90184C14.1326 6.65559 13.8888 6.40184 13.797 6.17871C13.712 5.97434 13.707 5.63559 13.702 5.30746C13.6926 4.69746 13.6826 4.00621 13.202 3.52559C12.7213 3.04496 12.0301 3.03496 11.4201 3.02559C11.092 3.02059 10.7532 3.01559 10.5488 2.93059C10.3263 2.83871 10.072 2.59496 9.8257 2.35934C9.39445 1.94496 8.90445 1.47559 8.25195 1.47559C7.59945 1.47559 7.11008 1.94496 6.6782 2.35934C6.43195 2.59496 6.1782 2.83871 5.95508 2.93059C5.75195 3.01559 5.41195 3.02059 5.08383 3.02559C4.47383 3.03496 3.78258 3.04496 3.30195 3.52559C2.82133 4.00621 2.81445 4.69746 2.80195 5.30746C2.79695 5.63559 2.79195 5.97434 2.70695 6.17871C2.61508 6.40121 2.37133 6.65559 2.1357 6.90184C1.72133 7.33309 1.25195 7.82309 1.25195 8.47559C1.25195 9.12809 1.72133 9.61746 2.1357 10.0493C2.37133 10.2956 2.61508 10.5493 2.70695 10.7725C2.79195 10.9768 2.79695 11.3156 2.80195 11.6437C2.81133 12.2537 2.82133 12.945 3.30195 13.4256C3.78258 13.9062 4.47383 13.9162 5.08383 13.9256C5.41195 13.9306 5.7507 13.9356 5.95508 14.0206C6.17758 14.1125 6.43195 14.3562 6.6782 14.5918C7.10945 15.0062 7.59945 15.4756 8.25195 15.4756C8.90445 15.4756 9.39383 15.0062 9.8257 14.5918C10.072 14.3562 10.3257 14.1125 10.5488 14.0206C10.7532 13.9356 11.092 13.9306 11.4201 13.9256C12.0301 13.9162 12.7213 13.9062 13.202 13.4256C13.6826 12.945 13.6926 12.2537 13.702 11.6437C13.707 11.3156 13.712 10.9768 13.797 10.7725C13.8888 10.55 14.1326 10.2956 14.3682 10.0493C14.7826 9.61809 15.252 9.12809 15.252 8.47559C15.252 7.82309 14.7826 7.33371 14.3682 6.90184ZM13.6463 9.35746C13.347 9.66996 13.037 9.99309 12.8726 10.39C12.7151 10.7712 12.7082 11.2068 12.702 11.6287C12.6957 12.0662 12.6888 12.5243 12.4945 12.7181C12.3001 12.9118 11.8451 12.9193 11.4051 12.9256C10.9832 12.9318 10.5476 12.9387 10.1663 13.0962C9.76945 13.2606 9.44633 13.5706 9.13383 13.87C8.82133 14.1693 8.50195 14.4756 8.25195 14.4756C8.00195 14.4756 7.68008 14.1681 7.37008 13.87C7.06008 13.5718 6.73445 13.2606 6.33758 13.0962C5.95633 12.9387 5.5207 12.9318 5.09883 12.9256C4.66133 12.9193 4.2032 12.9125 4.00945 12.7181C3.8157 12.5237 3.8082 12.0687 3.80195 11.6287C3.7957 11.2068 3.78883 10.7712 3.63133 10.39C3.46695 9.99309 3.15695 9.66996 2.85758 9.35746C2.5582 9.04496 2.25195 8.72559 2.25195 8.47559C2.25195 8.22559 2.55945 7.90371 2.85758 7.59371C3.1557 7.28371 3.46695 6.95809 3.63133 6.56121C3.78883 6.17996 3.7957 5.74434 3.80195 5.32246C3.8082 4.88496 3.81508 4.42684 4.00945 4.23309C4.20383 4.03934 4.65883 4.03184 5.09883 4.02559C5.5207 4.01934 5.95633 4.01246 6.33758 3.85496C6.73445 3.69059 7.05758 3.38059 7.37008 3.08121C7.68258 2.78184 8.00195 2.47559 8.25195 2.47559C8.50195 2.47559 8.82383 2.78309 9.13383 3.08121C9.44383 3.37934 9.76945 3.69059 10.1663 3.85496C10.5476 4.01246 10.9832 4.01934 11.4051 4.02559C11.8426 4.03184 12.3007 4.03871 12.4945 4.23309C12.6882 4.42746 12.6957 4.88246 12.702 5.32246C12.7082 5.74434 12.7151 6.17996 12.8726 6.56121C13.037 6.95809 13.347 7.28121 13.6463 7.59371C13.9457 7.90621 14.252 8.22559 14.252 8.47559C14.252 8.72559 13.9445 9.04746 13.6463 9.35746ZM11.1057 6.62184C11.1522 6.66827 11.1891 6.72342 11.2142 6.78412C11.2394 6.84481 11.2523 6.90988 11.2523 6.97559C11.2523 7.04129 11.2394 7.10636 11.2142 7.16706C11.1891 7.22776 11.1522 7.2829 11.1057 7.32934L7.6057 10.8293C7.55927 10.8758 7.50412 10.9127 7.44342 10.9379C7.38272 10.963 7.31766 10.976 7.25195 10.976C7.18625 10.976 7.12118 10.963 7.06048 10.9379C6.99978 10.9127 6.94464 10.8758 6.8982 10.8293L5.3982 9.32934C5.30438 9.23552 5.25168 9.10827 5.25168 8.97559C5.25168 8.8429 5.30438 8.71566 5.3982 8.62184C5.49202 8.52802 5.61927 8.47531 5.75195 8.47531C5.88463 8.47531 6.01188 8.52802 6.1057 8.62184L7.25195 9.76871L10.3982 6.62184C10.4446 6.57535 10.4998 6.53847 10.5605 6.51331C10.6212 6.48814 10.6862 6.47519 10.752 6.47519C10.8177 6.47519 10.8827 6.48814 10.9434 6.51331C11.0041 6.53847 11.0593 6.57535 11.1057 6.62184Z" fill="#080707" fill-opacity="0.6"/>
</svg>
