<svg width="24" height="24" viewBox="0 0 24 24" fill="none" xmlns="http://www.w3.org/2000/svg">
<g clip-path="url(#clip0_2112_73855)">
<path d="M10.3452 22.6424C10.3452 22.9544 10.2675 23.2594 10.122 23.5189C9.97651 23.7783 9.76971 23.9805 9.52776 24.0999C9.28581 24.2193 9.01957 24.2506 8.76271 24.1897C8.50586 24.1288 8.26992 23.9786 8.08474 23.758C7.89955 23.5373 7.77344 23.2562 7.72235 22.9502C7.67126 22.6442 7.69748 22.3269 7.7977 22.0387C7.89792 21.7504 8.06764 21.504 8.28539 21.3307C8.50314 21.1573 8.75915 21.0648 9.02104 21.0648C9.37222 21.0648 9.70901 21.231 9.95734 21.5269C10.2057 21.8227 10.3452 22.224 10.3452 22.6424ZM17.6279 21.0648C17.366 21.0648 17.11 21.1573 16.8922 21.3307C16.6745 21.504 16.5048 21.7504 16.4045 22.0387C16.3043 22.3269 16.2781 22.6442 16.3292 22.9502C16.3803 23.2562 16.5064 23.5373 16.6916 23.758C16.8768 23.9786 17.1127 24.1288 17.3696 24.1897C17.6264 24.2506 17.8926 24.2193 18.1346 24.0999C18.3766 23.9805 18.5834 23.7783 18.7288 23.5189C18.8743 23.2594 18.952 22.9544 18.952 22.6424C18.952 22.224 18.8125 21.8227 18.5642 21.5269C18.3159 21.231 17.9791 21.0648 17.6279 21.0648ZM21.5763 8.65481L19.4543 17.7537C19.3377 18.2508 19.0882 18.6889 18.7436 19.0018C18.3991 19.3146 17.9783 19.485 17.5451 19.4872H9.36531C8.93086 19.4869 8.50839 19.3174 8.16234 19.0044C7.81629 18.6915 7.56564 18.2522 7.44863 17.7537L4.54548 5.28856H3.06246C2.88686 5.28856 2.71847 5.20545 2.5943 5.05752C2.47014 4.90959 2.40039 4.70895 2.40039 4.49975C2.40039 4.29054 2.47014 4.08991 2.5943 3.94197C2.71847 3.79404 2.88686 3.71094 3.06246 3.71094H5.04865C5.19339 3.7109 5.33416 3.76739 5.4494 3.87174C5.56464 3.9761 5.64799 4.12257 5.68671 4.28874L6.47126 7.65499H20.9382C21.0403 7.65497 21.141 7.68306 21.2324 7.73708C21.3238 7.79109 21.4036 7.86957 21.4653 7.96637C21.5271 8.06317 21.5693 8.17568 21.5885 8.2951C21.6078 8.41453 21.6036 8.53764 21.5763 8.65481ZM20.0668 9.23262H6.83953L8.72725 17.3317C8.76596 17.4979 8.84932 17.6444 8.96456 17.7487C9.0798 17.8531 9.22057 17.9096 9.36531 17.9095H17.5451C17.6899 17.9096 17.8306 17.8531 17.9459 17.7487C18.0611 17.6444 18.1445 17.4979 18.1832 17.3317L20.0668 9.23262Z" fill="#131313"/>
</g>
<defs>
<clipPath id="clip0_2112_73855">
<rect width="24" height="24" fill="white"/>
</clipPath>
</defs>
</svg>
