<svg width="14" height="15" viewBox="0 0 14 15" fill="none" xmlns="http://www.w3.org/2000/svg">
<g clip-path="url(#clip0_6854_64428)">
<g filter="url(#filter0_d_6854_64428)">
<path d="M4.80913 5.23523L1.08747 5.77482L1.02155 5.78823C0.921766 5.81472 0.830798 5.86722 0.757938 5.94037C0.685079 6.01351 0.632937 6.10469 0.606838 6.20458C0.580738 6.30446 0.581617 6.40949 0.609384 6.50893C0.637151 6.60837 0.690811 6.69865 0.764885 6.77057L3.46105 9.39498L2.82522 13.1021L2.81763 13.1662C2.81153 13.2694 2.83296 13.3724 2.87973 13.4646C2.9265 13.5568 2.99694 13.6349 3.08383 13.691C3.17072 13.747 3.27094 13.7789 3.37422 13.7835C3.47751 13.788 3.58015 13.7651 3.67163 13.7169L7.00013 11.9669L10.3211 13.7169L10.3794 13.7437C10.4757 13.7817 10.5803 13.7933 10.6826 13.7774C10.7848 13.7616 10.881 13.7188 10.9613 13.6535C11.0416 13.5882 11.103 13.5027 11.1394 13.4058C11.1757 13.3089 11.1856 13.2041 11.168 13.1021L10.5316 9.39498L13.229 6.76998L13.2745 6.7204C13.3395 6.64035 13.3821 6.5445 13.398 6.44262C13.4139 6.34073 13.4025 6.23645 13.3649 6.14041C13.3274 6.04437 13.2651 5.95999 13.1843 5.89587C13.1036 5.83175 13.0073 5.79018 12.9052 5.7754L9.18355 5.23523L7.51989 1.86357C7.47175 1.76588 7.39722 1.68362 7.30475 1.6261C7.21227 1.56857 7.10554 1.53809 6.99663 1.53809C6.88773 1.53809 6.781 1.56857 6.68852 1.6261C6.59605 1.68362 6.52152 1.76588 6.47338 1.86357L4.80913 5.23523Z" fill="#F9BC26"/>
</g>
</g>
<defs>
<filter id="filter0_d_6854_64428" x="0.587891" y="1.53809" width="13.4174" height="13.2461" filterUnits="userSpaceOnUse" color-interpolation-filters="sRGB">
<feFlood flood-opacity="0" result="BackgroundImageFix"/>
<feColorMatrix in="SourceAlpha" type="matrix" values="0 0 0 0 0 0 0 0 0 0 0 0 0 0 0 0 0 0 127 0" result="hardAlpha"/>
<feOffset dx="0.6" dy="1"/>
<feComposite in2="hardAlpha" operator="out"/>
<feColorMatrix type="matrix" values="0 0 0 0 0 0 0 0 0 0 0 0 0 0 0 0 0 0 1 0"/>
<feBlend mode="normal" in2="BackgroundImageFix" result="effect1_dropShadow_6854_64428"/>
<feBlend mode="normal" in="SourceGraphic" in2="effect1_dropShadow_6854_64428" result="shape"/>
</filter>
<clipPath id="clip0_6854_64428">
<rect width="14" height="14" fill="white" transform="translate(0 0.475586)"/>
</clipPath>
</defs>
</svg>
